<svg id="Layer_1" data-name="Layer 1" xmlns="http://www.w3.org/2000/svg" xmlns:xlink="http://www.w3.org/1999/xlink" viewBox="0 0 471.41 432.3"><defs><style>.cls-1{fill:url(#radial-gradient);}.cls-2{fill:url(#radial-gradient-2);}.cls-3{fill:url(#radial-gradient-3);}.cls-4{fill:url(#linear-gradient);}.cls-5{fill:url(#linear-gradient-2);}.cls-6{fill:url(#linear-gradient-3);}</style><radialGradient id="radial-gradient" cx="396.71" cy="124.94" r="89.24" gradientTransform="matrix(1, 0, 0, -1, -14.55, 468)" gradientUnits="userSpaceOnUse"><stop offset="0" stop-color="#ff7100"/><stop offset="0.82" stop-color="#ff4e00"/><stop offset="1" stop-color="#ff3e00"/></radialGradient><radialGradient id="radial-gradient-2" cx="250.25" cy="378.76" r="84.94" gradientTransform="matrix(1, 0, 0, -1, -14.55, 468)" gradientUnits="userSpaceOnUse"><stop offset="0" stop-color="#00e1ed"/><stop offset="1" stop-color="#00bfe2"/></radialGradient><radialGradient id="radial-gradient-3" cx="103.79" cy="124.94" r="89.24" gradientTransform="matrix(1, 0, 0, -1, -14.55, 468)" gradientUnits="userSpaceOnUse"><stop offset="0" stop-color="#3a00d7"/><stop offset="1" stop-color="#440085"/></radialGradient><linearGradient id="linear-gradient" x1="194.27" y1="124.86" x2="306.75" y2="125.15" gradientTransform="matrix(1, 0, 0, -1, 0, 502)" gradientUnits="userSpaceOnUse"><stop offset="0" stop-color="#440086"/><stop offset="0.25" stop-color="#5c0775"/><stop offset="0.49" stop-color="#8c1453"/><stop offset="0.86" stop-color="#f43508"/><stop offset="0.94" stop-color="#ff4201"/></linearGradient><linearGradient id="linear-gradient-2" x1="-583.08" y1="-1217.47" x2="-465.08" y2="-1217.17" gradientTransform="translate(-468.55 1312.83) rotate(60)" gradientUnits="userSpaceOnUse"><stop offset="0.04" stop-color="#01bfe2"/><stop offset="0.12" stop-color="#0ab9e0"/><stop offset="0.23" stop-color="#26a5d9"/><stop offset="0.48" stop-color="#865fbf"/><stop offset="0.85" stop-color="#fd4205"/><stop offset="1" stop-color="#ff4102"/></linearGradient><linearGradient id="linear-gradient-3" x1="-698.42" y1="-1114.78" x2="-579.67" y2="-1114.47" gradientTransform="matrix(0.5, -0.87, -0.87, -0.5, -468.55, -860.83)" gradientUnits="userSpaceOnUse"><stop offset="0" stop-color="#408"/><stop offset="0.03" stop-color="#408"/><stop offset="0.28" stop-color="#3e2097"/><stop offset="0.47" stop-color="#2a4bab"/><stop offset="0.74" stop-color="#0ba2d4"/><stop offset="0.84" stop-color="#04b7de"/><stop offset="0.92" stop-color="#01bfe2"/></linearGradient></defs><title>logo</title><circle class="cls-1" cx="382.17" cy="343.06" r="89.24"/><circle class="cls-2" cx="235.7" cy="89.24" r="89.24"/><circle class="cls-3" cx="89.24" cy="343.06" r="89.24"/><path class="cls-4" d="M314.57,411.86S309.2,384,250.25,384s-64.32,27.9-64.32,27.9a140.26,140.26,0,0,0,0-69.79S191.2,370,250.25,370s64.32-27.9,64.32-27.9-4.32,13-4.32,35.09C310.35,399,314.57,411.86,314.57,411.86Z" transform="translate(-14.55 -34)"/><path class="cls-5" d="M385.88,288.4s-26.84,9.29-56.36-41.8-8-69.68-8-69.68a146.19,146.19,0,0,1-28,21.28,148.33,148.33,0,0,1-32.4,13.61s26.84-9.3,56.36,41.79,8.06,69.69,8.06,69.69S334.7,313,353.68,302,385.88,288.4,385.88,288.4Z" transform="translate(-14.55 -34)"/><path class="cls-6" d="M239.42,211.9s-26.84-9.29-56.36,41.8S175,323.38,175,323.38a146.3,146.3,0,0,0-28-21.28,148.33,148.33,0,0,0-32.4-13.61s26.84,9.3,56.36-41.79S179,177,179,177s9.2,10.26,28.18,21.28S239.42,211.9,239.42,211.9Z" transform="translate(-14.55 -34)"/></svg>